<svg width="20" height="20" viewBox="0 0 20 20" fill="none" xmlns="http://www.w3.org/2000/svg">
    <path
        d="M18.1246 2.81203V13.7496C18.1246 13.9982 18.0258 14.2367 17.85 14.4125C17.6742 14.5883 17.4357 14.6871 17.1871 14.6871C16.9384 14.6871 16.7 14.5883 16.5242 14.4125C16.3483 14.2367 16.2496 13.9982 16.2496 13.7496V3.74961H6.24902C6.00038 3.74961 5.76193 3.65083 5.58611 3.47502C5.4103 3.2992 5.31152 3.06075 5.31152 2.81211C5.31152 2.56347 5.4103 2.32501 5.58611 2.14919C5.76193 1.97338 6.00038 1.87461 6.24902 1.87461H17.1871C17.4357 1.87461 17.6742 1.97338 17.85 2.14919C18.0258 2.32501 18.1246 2.56347 18.1246 2.81211V2.81203ZM14.9996 5.93711V16.8746C14.9996 17.1232 14.9008 17.3617 14.725 17.5375C14.5492 17.7133 14.3107 17.8121 14.0621 17.8121H3.12402C2.87538 17.8121 2.63693 17.7133 2.46111 17.5375C2.2853 17.3617 2.18652 17.1232 2.18652 16.8746V5.93711C2.18652 5.68847 2.2853 5.45001 2.46111 5.27419C2.63693 5.09838 2.87538 4.99961 3.12402 4.99961H14.0621C14.3107 4.99961 14.5492 5.09838 14.725 5.27419C14.9008 5.45001 14.9996 5.68847 14.9996 5.93711ZM13.1246 6.87461H4.06152V15.9371H13.1246V6.87461Z"
        fill="#666666"></path>
</svg>