<svg width="48" height="48" viewBox="0 0 48 48" fill="none" xmlns="http://www.w3.org/2000/svg">
<path d="M23.9996 47.9001C10.7996 47.9001 0.0996094 37.2001 0.0996094 24.0001C0.0996094 10.8001 10.7996 0.100098 23.9996 0.100098C37.1996 0.100098 47.8996 10.8001 47.8996 24.0001C47.8996 37.2001 37.1996 47.9001 23.9996 47.9001ZM23.9996 2.7001C12.2996 2.7001 2.69962 12.3001 2.69962 24.0001C2.69962 35.7001 12.2996 45.3001 23.9996 45.3001C35.6996 45.3001 45.2996 35.7001 45.2996 24.0001C45.2996 12.3001 35.6996 2.7001 23.9996 2.7001Z" fill="#666666"/>
<path d="M9.9996 41.3002L7.59961 40.2002C8.29961 38.5002 10.4996 37.6002 12.9996 36.5002C15.3996 35.4002 18.3996 34.1002 18.3996 32.5002V30.3002C17.4996 29.6002 16.0996 28.0002 15.8996 25.7002C15.1996 25.0002 14.0996 23.7002 14.0996 22.1002C14.0996 21.1002 14.4996 20.3002 14.7996 19.8002C14.5996 18.7002 14.1996 16.5002 14.1996 14.8002C14.1996 9.30019 17.9996 5.7002 23.9996 5.7002C25.6996 5.7002 27.7996 6.20018 28.8996 7.40018C31.5996 7.90018 33.7996 11.1002 33.7996 14.8002C33.7996 17.2002 33.3996 19.2002 33.0996 20.1002C33.3996 20.6002 33.6996 21.3002 33.6996 22.1002C33.6996 24.0002 32.7996 25.2002 31.8996 25.8002C31.6996 28.1002 30.3996 29.6002 29.5996 30.3002V32.5002C29.5996 33.9002 32.0996 34.8002 34.3996 35.7002C37.0996 36.7002 39.8996 37.7002 40.7996 40.0002L38.2996 40.9002C37.8996 39.7002 35.4996 38.9002 33.4996 38.1002C30.3996 37.0002 26.8996 35.7002 26.8996 32.5002V28.9002L27.4996 28.5002C27.5996 28.5002 29.2996 27.3002 29.2996 25.0002V24.1002L30.0996 23.8002C30.1996 23.7002 30.9996 23.3002 30.9996 22.1002C30.9996 21.7002 30.6996 21.3002 30.5996 21.2002L30.0996 20.6002L30.2996 19.9002C30.2996 19.9002 30.9996 17.7002 30.9996 14.7002C30.9996 12.2002 29.5996 9.90018 28.0996 9.90018H27.2996L26.8996 9.2002C26.5996 8.7002 25.3996 8.2002 23.7996 8.2002C19.2996 8.2002 16.5996 10.6002 16.5996 14.7002C16.5996 16.6002 17.2996 19.7002 17.2996 19.7002L17.4996 20.4002L16.9996 20.9002C16.9996 20.9002 16.5996 21.4002 16.5996 21.9002C16.5996 22.6002 17.4996 23.5002 17.8996 23.9002L18.3996 24.3002V25.0002C18.3996 27.2002 20.2996 28.4002 20.2996 28.4002L20.8996 28.8002V32.4002C20.8996 35.7002 17.1996 37.4002 13.8996 38.8002C12.4996 39.6002 10.3996 40.6002 9.9996 41.3002Z" fill="#666666"/>
</svg>
